<svg xmlns="http://www.w3.org/2000/svg" viewBox="0 0 100 100">
  <defs>
    <style>
      .a {
        fill: #fff;
      }
    </style>
  </defs>
  <title>namaph_icons</title>
  <polygon class="a" points="37.461 47.491 42.81 41.995 44.694 49.429 52.074 47.344 49.989 54.724 57.423 56.608 51.927 61.957 57.423 67.305 49.989 69.19 52.074 76.569 44.694 74.484 42.81 81.918 37.461 76.423 32.113 81.918 30.228 74.484 22.849 76.569 24.934 69.19 17.5 67.305 22.995 61.957 17.5 56.608 24.934 54.724 22.849 47.344 30.228 49.429 32.113 41.995 37.461 47.491"/>
  <rect class="a" x="58.587" y="27.029" width="23.913" height="6.019"/>
  <rect class="a" x="58.587" y="27.029" width="23.913" height="6.019" transform="translate(100.582 -40.505) rotate(90)"/>
</svg>
