<svg xmlns="http://www.w3.org/2000/svg" viewBox="0 0 100 100">
  <title>namaph_icons</title>
  <g>
    <polygon points="86.38 20.61 86.38 69.94 63.55 79.37 63.55 49.95 63.55 30.04 86.38 20.61"/>
    <path d="M63.55,49.95V79.37L40.71,69.94V46.08h.86c0,5.54,9.35,17.68,9.35,17.68s9.69-8.31,9.76-13.81Z"/>
    <path d="M51.19,43.17a5.811,5.811,0,0,1,4.39,5.54,3.662,3.662,0,0,1-4.51,3.71,5.773,5.773,0,0,1-4.39-5.54A3.64,3.64,0,0,1,51.19,43.17Z"/>
    <path d="M63.55,30.04V49.95H60.68a12.363,12.363,0,0,0-9.43-11.9c-5.29-1.08-9.61,2.47-9.68,7.97v.06h-.86V20.61Z"/>
    <polygon points="40.71 46.08 40.71 69.94 17.88 79.37 17.88 30.04 40.71 20.61 40.71 46.08"/>
  </g>
</svg>
