<svg xmlns="http://www.w3.org/2000/svg" viewBox="0 0 220 58.75">
  <defs>
    <style>
      .a {
        fill: #fff;
      }
    </style>
  </defs>
  <title>namaph_mini</title>
  <g>
    <path class="a" d="M27.436,24.147v21.91h-7.5V24.936c0-3.289-1.841-5-4.54-5H13.487C9.869,19.936,7.5,22.5,7.5,26.252V46.057H0V13.949H6.316l.46,4.013c1.579-2.895,4.738-4.672,8.883-4.672h1.447C23.554,13.29,27.436,17.633,27.436,24.147Z"/>
    <path class="a" d="M60.922,23.752V46.057H54.8l-.46-3.75a9.059,9.059,0,0,1-8.159,4.408H44.013c-6.448,0-10.724-3.751-10.724-9.672,0-6.251,4.473-9.935,11.316-9.935H53.62V23.752c0-2.7-1.909-4.145-4.738-4.145h-2.3c-3.027,0-4.671,1.645-4.671,4.145H34.736c0-6.251,4.605-10.462,11.251-10.462h3.882C56.449,13.29,60.922,17.5,60.922,23.752ZM53.62,34.74v-2.3H44.605c-2.5,0-4.014,1.645-4.014,4.211,0,2.631,1.909,4.08,4.738,4.08h2.1C51.185,40.728,53.62,38.358,53.62,34.74Z"/>
    <path class="a" d="M115.661,24.147v21.91h-7.5V24.936c0-3.289-1.776-5-4.54-5h-1.579c-3.618,0-5.987,2.566-5.987,6.316V46.057h-7.5V24.936c0-3.289-1.842-5-4.54-5H82.434c-3.618,0-5.987,2.566-5.987,6.316V46.057h-7.5V13.949h6.316l.46,3.947C77.237,15,80.4,13.29,84.539,13.29h1.185c4.211,0,7.3,1.843,8.948,4.869,1.711-2.96,5.066-4.869,9.277-4.869H105.4C111.779,13.29,115.661,17.633,115.661,24.147Z"/>
    <path class="a" d="M149.145,23.752V46.057h-6.119l-.46-3.75a9.059,9.059,0,0,1-8.159,4.408h-2.171c-6.448,0-10.724-3.751-10.724-9.672,0-6.251,4.473-9.935,11.316-9.935h9.014V23.752c0-2.7-1.908-4.145-4.737-4.145h-2.3c-3.027,0-4.671,1.645-4.671,4.145h-7.172c0-6.251,4.6-10.462,11.251-10.462h3.882C144.672,13.29,149.145,17.5,149.145,23.752Zm-7.3,10.988v-2.3h-9.014c-2.5,0-4.014,1.645-4.014,4.211,0,2.631,1.908,4.08,4.738,4.08h2.105C139.408,40.728,141.842,38.358,141.842,34.74Z"/>
    <path class="a" d="M185.527,25.265v8.883c0,7.566-4.606,12.567-11.514,12.567h-1.382a9.358,9.358,0,0,1-7.962-3.882v15.4h-7.5V13.949h6.316l.526,4.408a9.155,9.155,0,0,1,8.619-5.067h1.645C181.053,13.29,185.527,18.094,185.527,25.265Zm-7.632.658c0-3.882-2.106-6.053-5.33-6.053h-1.842c-3.948,0-6.054,3.027-6.054,7.567v5.132c0,4.934,2.435,7.566,6.054,7.566h1.842c3.422,0,5.33-2.632,5.33-6.579Z"/>
    <path class="a" d="M220,24.147v21.91h-7.5V24.936c0-3.289-1.843-5-4.54-5h-1.908c-3.619,0-5.987,2.895-5.987,7.238V46.057h-7.5V0h7.5V17.436a9.127,9.127,0,0,1,8.158-4.146h1.447C216.118,13.29,220,17.633,220,24.147Z"/>
  </g>
</svg>
